<svg xmlns="http://www.w3.org/2000/svg" xmlns:xlink="http://www.w3.org/1999/xlink" version="1.1" id="Layer_1" x="0px" y="0px" viewBox="0 0 1414.04 233.34" style="enable-background:new 0 0 1414.04 233.34;" xml:space="preserve" data-inject-url="https://sea-doo.brp.com/content/dam/global/logos/brands/footer/logo-aluma-footer.svg" class="svg">
<g>
	<path d="M160.3,46.24h38.4L221.09,191h-42.71l-3.59-25.67h-55.44L102.21,191H60.33L160.3,46.24z M171.6,134.33l-5.07-40.86   l-27.17,40.86H171.6z"></path>
	<path d="M271.25,47.27h39.83l-29.16,108.82h69.6l-9.35,34.9H232.74L271.25,47.27z"></path>
	<path d="M369.46,127.96l21.62-80.69h40.45l-21.4,79.87c-5.56,20.74,2.27,30.59,18.29,30.59c16.01,0,29.02-9.45,34.41-29.57   l21.68-80.9h40.45l-21.35,79.66c-12.43,46.4-44.37,66.73-85.23,66.73C377.52,193.66,357.41,172.93,369.46,127.96z"></path>
	<path d="M545.28,47.27h42.09l19.38,55.64l49.2-55.64h42.09L659.53,191H619.9l22.12-82.54l-51.83,56.26h-0.82l-21.58-55.85   L545.78,191h-39.01L545.28,47.27z"></path>
	<path d="M771.15,46.24h38.39L831.95,191h-42.71l-3.59-25.67h-55.44L713.07,191h-41.89L771.15,46.24z M782.46,134.33l-5.07-40.86   l-27.17,40.86H782.46z"></path>
	<path d="M879.36,188.94c-8.47-3.01-15.76-7.28-21.89-12.82c-6.13-5.53-10.9-12.26-14.31-20.18c-3.41-7.92-5.12-16.78-5.12-26.59   c0-11.77,2.33-22.95,7-33.53c4.66-10.58,11.01-19.93,19.02-28.06c8.02-8.12,17.46-14.57,28.32-19.34c10.86-4.76,22.52-7.15,35-7.15   c14.15,0,26.03,2.8,35.63,8.41c9.59,5.61,17.34,13.24,23.23,22.91l-26.7,18.71c-4.35-6.16-9.25-11.07-14.71-14.71   c-5.46-3.64-12.61-5.46-21.44-5.46c-6.73,0-13.21,1.51-19.44,4.52c-6.23,3.02-11.77,7.08-16.6,12.19   c-4.83,5.12-8.69,11.14-11.56,18.08c-2.87,6.93-4.31,14.33-4.31,22.17c0,5.33,0.87,10.16,2.62,14.5c1.75,4.35,4.24,8.09,7.46,11.25   c3.22,3.15,7.01,5.57,11.35,7.25c4.34,1.68,9.18,2.52,14.5,2.52c7.15,0,13.31-1.29,18.5-3.89c5.18-2.59,10.51-6.13,15.98-10.61   l21.02,21.86c-7.15,6.59-15.13,11.98-23.96,16.18s-19.41,6.31-31.74,6.31C897.11,193.46,887.83,191.95,879.36,188.94z"></path>
	<path d="M999.45,78.28h31.95l-6.1,22.7c5.74-8.41,12.01-14.82,18.81-19.23c6.79-4.42,14.82-6.27,24.07-5.57l-9.04,33.42h-1.68   c-10.65,0-19.9,3.22-27.75,9.67c-7.85,6.45-13.73,17.02-17.66,31.74l-10.72,39.94h-31.95L999.45,78.28z"></path>
	<path d="M1075.17,190.83c-3.99-1.47-7.43-3.57-10.3-6.31c-2.87-2.73-5.12-5.92-6.73-9.56c-1.61-3.64-2.42-7.71-2.42-12.19   c0-6.44,1.26-12.19,3.79-17.23c2.52-5.04,5.95-9.32,10.3-12.82c4.34-3.5,9.46-6.13,15.34-7.88c5.89-1.75,12.26-2.63,19.13-2.63   c6.17,0,11.8,0.46,16.92,1.37c5.11,0.91,10.05,2.14,14.82,3.68l0.42-1.47c0.28-1.26,0.56-2.56,0.84-3.89   c0.28-1.33,0.42-2.84,0.42-4.52c0-3.92-1.54-7.11-4.62-9.57c-3.08-2.45-8.62-3.68-16.6-3.68c-5.47,0-10.83,0.6-16.08,1.79   c-5.26,1.19-9.92,2.63-13.98,4.31L1081.37,85c5.88-2.38,12.33-4.31,19.34-5.78c7-1.47,14.5-2.21,22.49-2.21   c15.27,0,26.69,3.01,34.26,9.04c7.57,6.03,11.35,14.58,11.35,25.64c0,2.94-0.25,5.82-0.74,8.62c-0.49,2.8-1.09,5.6-1.79,8.41   l-16.6,62.21h-30.9l3.36-13.03c-4.48,4.91-9.53,8.65-15.13,11.25c-5.6,2.59-11.77,3.89-18.5,3.89   C1083.61,193.04,1079.17,192.3,1075.17,190.83z M1111.75,169.39c3.01-1.19,5.78-2.84,8.3-4.94c2.52-2.1,4.69-4.52,6.52-7.25   c1.82-2.73,3.15-5.64,3.99-8.72l0.84-2.94c-2.8-1.12-6.03-2.07-9.67-2.84c-3.65-0.77-7.43-1.15-11.35-1.15   c-6.73,0-12.23,1.58-16.5,4.73c-4.28,3.15-6.41,7.46-6.41,12.93c0,3.5,1.33,6.38,3.99,8.62c2.66,2.24,6.23,3.36,10.72,3.36   C1105.55,171.18,1108.73,170.59,1111.75,169.39z"></path>
	<path d="M1197.8,105.39h-13.45l7.36-27.11h13.24l1.47-6.09c3.08-12.75,8.48-21.96,16.18-27.64c7.71-5.68,17.52-8.51,29.43-8.51   c4.48,0,8.58,0.28,12.3,0.85c3.71,0.57,6.9,1.34,9.56,2.33l-6.93,26.67c-2.1-0.84-4.38-1.5-6.83-2c-2.45-0.49-4.8-0.74-7.04-0.74   c-8.41,0-13.66,4.01-15.76,12.02l-0.84,3.11h27.11l-7.36,27.11h-26.48l-23.12,85.55h-31.95L1197.8,105.39z"></path>
	<path d="M1274.12,186.51c-4.76-4.21-7.15-9.48-7.15-15.81c0-2.39,0.18-4.71,0.53-6.95c0.35-2.25,0.88-4.64,1.58-7.17l13.66-51.2   h-13.45l7.36-27.11h13.45l7.78-28.8h31.95l-7.78,28.8h26.48l-7.36,27.11h-26.48l-12.61,47.47c-0.28,0.84-0.49,1.72-0.63,2.64   c-0.14,0.91-0.21,1.72-0.21,2.42c0,4.49,2.87,6.74,8.62,6.74c2.52,0,5.22-0.32,8.09-0.95c2.87-0.63,5.64-1.5,8.3-2.63l-7.36,27.11   c-6.59,3.08-14.29,4.62-23.12,4.62C1286.1,192.83,1278.88,190.73,1274.12,186.51z"></path>
	<g>
		<path d="M1332.92,180.42c0-1.89,0.36-3.66,1.09-5.32c0.72-1.66,1.71-3.11,2.95-4.35c1.24-1.24,2.69-2.22,4.35-2.95    c1.66-0.72,3.43-1.09,5.32-1.09c1.89,0,3.66,0.36,5.32,1.09c1.66,0.72,3.11,1.71,4.35,2.95c1.24,1.24,2.22,2.69,2.95,4.35    c0.72,1.66,1.09,3.43,1.09,5.32c0,1.89-0.36,3.67-1.09,5.32c-0.72,1.66-1.71,3.11-2.95,4.35c-1.24,1.24-2.69,2.22-4.35,2.95    c-1.66,0.72-3.43,1.09-5.32,1.09c-1.89,0-3.67-0.36-5.32-1.09c-1.66-0.72-3.11-1.71-4.35-2.95c-1.24-1.24-2.22-2.69-2.95-4.35    C1333.28,184.09,1332.92,182.31,1332.92,180.42z M1335.35,180.42c0,1.55,0.29,3.01,0.88,4.38c0.59,1.38,1.39,2.57,2.41,3.59    c1.02,1.02,2.22,1.82,3.59,2.41c1.37,0.59,2.84,0.88,4.38,0.88c1.55,0,3.01-0.29,4.38-0.88c1.37-0.59,2.57-1.39,3.59-2.41    c1.02-1.02,1.82-2.22,2.41-3.59c0.59-1.37,0.88-2.84,0.88-4.38c0-1.55-0.29-3.01-0.88-4.38c-0.59-1.37-1.39-2.57-2.41-3.59    c-1.02-1.02-2.22-1.82-3.59-2.41c-1.37-0.59-2.84-0.88-4.38-0.88c-1.55,0-3.01,0.29-4.38,0.88c-1.37,0.59-2.57,1.39-3.59,2.41    c-1.02,1.02-1.82,2.22-2.41,3.59C1335.64,177.41,1335.35,178.87,1335.35,180.42z M1341.35,172.5h6.04c1.89,0,3.29,0.4,4.18,1.21    c0.9,0.81,1.34,1.98,1.34,3.5c0,1.38-0.35,2.41-1.06,3.09c-0.71,0.69-1.59,1.09-2.66,1.22l4.05,6.63h-3.02l-3.9-6.41h-2.1v6.41    h-2.87V172.5z M1344.23,179.32h2.1c0.44,0,0.88-0.02,1.32-0.06c0.44-0.04,0.84-0.13,1.2-0.28c0.36-0.15,0.64-0.37,0.86-0.66    s0.33-0.7,0.33-1.22c0-0.52-0.11-0.92-0.33-1.22s-0.51-0.52-0.86-0.66c-0.36-0.15-0.76-0.23-1.2-0.26    c-0.44-0.02-0.88-0.04-1.32-0.04h-2.1V179.32z"></path>
	</g>
</g>
</svg>