<svg xmlns="http://www.w3.org/2000/svg" id="Calque_1" data-name="Calque 1" width="121.23" height="25.48" viewBox="0 0 121.23 25.48" data-inject-url="https://sea-doo.brp.com/content/dam/global/logos/brands/footer/logo-canam-footer.svg" class="svg">
  <title>logo-canam</title>
  <g id="Brands_Logo--inject-16" data-name="Brands Logo">
    <g id="Can-Am_Logo--inject-16" data-name="Can-Am Logo">
      <path id="Tracé_1308--inject-16" data-name="Tracé 1308" d="M20,3.41H9.16a3.44,3.44,0,0,0-3.11,1.7l0,.07C5.28,6.7,1.45,14.29.78,16.63a2,2,0,0,0-.08.73,1.53,1.53,0,0,0,.26.69,3.13,3.13,0,0,0,1.77,1l.17,0h.17l.29,0c5.6,0,9.24,0,10.58,0a4.57,4.57,0,0,0,3.5-1.27,1.76,1.76,0,0,0,.24-.3,4.5,4.5,0,0,0,.25-.44l2-4.21h-7l-.07.18c-.61,1.38-1.33,3-1.43,3.18l-.05.09,0,.05a1,1,0,0,1-.32.45c-.3.21-.49.26-1.48.26-.64,0-1.37,0-1.6-.3S7.76,16,8,15.42l4.08-8.74.12-.26a1.61,1.61,0,0,1,.72-.9,3,3,0,0,1,1.35-.13c1,0,1.17.07,1.44.41a.79.79,0,0,1,.1.34h0a1.52,1.52,0,0,1-.1.47,2,2,0,0,1-.09.21s-.16.38-.53,1.21L15,8.41h7.3l.07-.16c.19-.43.59-1.67.71-2,0,0,0-.19,0-.19l.05-.25,0-.27A2.3,2.3,0,0,0,21,3.43l-.34,0H20"></path>
      <path id="Tracé_1309--inject-16" data-name="Tracé 1309" d="M61.75,10.64l-1.21,2.82H68l1.18-2.82Z"></path>
      <path id="Tracé_1310--inject-16" data-name="Tracé 1310" d="M75.16,4.58l-.48.48s-.36.44-.36.44l-.45.78-.44,1L73,8.36h6.35l.76-1.65.24-.44s.11-.19.14-.24a1.13,1.13,0,0,1,.77-.61,3,3,0,0,1,.42,0h.78c.88,0,1.3.06,1.48.4a.94.94,0,0,1,.13.46,2.25,2.25,0,0,1-.06.36,1,1,0,0,1-.1.29S83,9,82.92,9.14l-9.43.57A2.62,2.62,0,0,0,71,11.26s-2.11,4.83-2.21,5.17c0,.06,0,.12,0,.18l0,.22v.29a2.09,2.09,0,0,0,2.21,2h.85s9,0,10,0a6.67,6.67,0,0,0,3-.73,3.42,3.42,0,0,0,1.3-1.54c.18-.41,4.45-10.2,4.5-10.41a.11.11,0,0,0,0-.08,1.82,1.82,0,0,0,.07-.25c0-.06,0,0,0-.22V5.71l0-.37a2.27,2.27,0,0,0-2.22-1.88l-.72,0H78.25a5.14,5.14,0,0,0-3.09,1.17m6.6,6.63h.12l-.27.57a51.63,51.63,0,0,1-2.28,4.67c-.41.39-.53.39-1.55.39h-.66a1.09,1.09,0,0,1-.83-.29.78.78,0,0,1-.18-.51s0-.12,0-.21.12-.41.13-.43.22-.51,1.14-2.7l.06-.1A2,2,0,0,1,79,11.42Z"></path>
      <path id="Tracé_1311--inject-16" data-name="Tracé 1311" d="M26.42,4.58l-.48.48s-.34.44-.34.44l-.44.78-.45,1-.42,1.07h6.35l.77-1.65.23-.44s.11-.19.14-.24a1.17,1.17,0,0,1,.75-.61,2.15,2.15,0,0,1,.43,0h.77c.89,0,1.29,0,1.47.4a.87.87,0,0,1,.13.45,2.25,2.25,0,0,1-.06.36,1.42,1.42,0,0,1-.1.29l-1,2.27-9.42.57a2.63,2.63,0,0,0-2.5,1.55s-2.09,4.83-2.19,5.17c0,0-.05.18-.05.18l0,.22v.29a2.1,2.1,0,0,0,2.21,2H23s9.07,0,10,0a6.63,6.63,0,0,0,3-.73,3.3,3.3,0,0,0,1.32-1.54c.18-.41,4.42-10.2,4.48-10.41l0-.08L42,6.08a1.89,1.89,0,0,1,0-.22V5.71l0-.37a2.27,2.27,0,0,0-2.22-1.88l-.71,0H29.51a5.14,5.14,0,0,0-3.09,1.17M33,11.22h.11l-.26.57q-1,2.38-2.27,4.67c-.42.39-.55.39-1.57.39h-.68a1,1,0,0,1-.81-.29.74.74,0,0,1-.19-.51s0-.12,0-.21.12-.41.12-.43.21-.51,1.14-2.7l.06-.1a2,2,0,0,1,1.58-1.18Z"></path>
      <path id="Tracé_1312--inject-16" data-name="Tracé 1312" d="M56.26,3.49l-.19,0-.78.18a23.18,23.18,0,0,1-3,.5.09.09,0,0,1-.1,0,.11.11,0,0,1,0-.08V3.43H45.37L38.48,19.08h6.73l5.42-12,.22-.38c.17-.25.47-.51,1.48-.5h.31c.57,0,1.23,0,1.5.31a.69.69,0,0,1,.18.6,2.57,2.57,0,0,1-.2.72L49.17,19.09H56L61.18,7a3.24,3.24,0,0,0,.32-1.53,2.08,2.08,0,0,0-1-1.59,5.92,5.92,0,0,0-4.2-.36"></path>
      <path id="Tracé_1313--inject-16" data-name="Tracé 1313" d="M115.66,3.43l-5,1.17a1.83,1.83,0,0,1-.61.11L110,4.52l-.1-.13a2,2,0,0,0-.62-.53,6,6,0,0,0-4.19-.37l-.83.2a26.93,26.93,0,0,1-3.09.52c-.1,0-.15,0-.18,0s0-.16,0-.16V3.42H94.11L87.25,19.08H94l5.42-12s.1-.16.22-.38.48-.51,1.5-.5h.32c.57,0,1.23,0,1.5.31a.73.73,0,0,1,.18.6,3,3,0,0,1-.2.72L98,19.09h6.8s4.68-10.79,5.12-11.75l.18-.37a1.64,1.64,0,0,1,1.61-.73H112c.55,0,1.23,0,1.55.28a.53.53,0,0,1,.17.49,2.38,2.38,0,0,1-.16.7L113.4,8l-4.9,11.07h6.81l5.25-12.17a3.2,3.2,0,0,0,.24-1.37,1.92,1.92,0,0,0-.91-1.66,6.43,6.43,0,0,0-4.23-.46"></path>
      <path id="Tracé_1314--inject-16" data-name="Tracé 1314" d="M118.42,17.46a1.17,1.17,0,1,1-.07,0h.07m0,2.58A1.42,1.42,0,1,0,117,18.62,1.44,1.44,0,0,0,118.42,20"></path>
      <path id="Tracé_1315--inject-16" data-name="Tracé 1315" d="M118.17,18.06h.22c.18,0,.38,0,.38.22s-.2.23-.38.23h-.22v-.45m0,.7h.22l.4.66h.3l-.41-.68a.39.39,0,0,0,.37-.42v0c0-.31-.17-.48-.55-.48h-.64v1.6h.3Z"></path>
    </g>
  </g>
</svg>