<svg xmlns="http://www.w3.org/2000/svg" id="Calque_1" data-name="Calque 1" width="77.58" height="25.48" viewBox="0 0 77.58 25.48" data-inject-url="https://sea-doo.brp.com/content/dam/global/logos/brands/footer/logo-lynx-footer.svg" class="svg">
  <title>logo-lynx</title>
  <g id="Brands_Logo--inject-14" data-name="Brands Logo">
    <g id="Lynx_Logo--inject-14" data-name="Lynx Logo">
      <g id="Groupe_6058--inject-14" data-name="Groupe 6058">
        <g id="Groupe_6057--inject-14" data-name="Groupe 6057">
          <path id="Tracé_1343--inject-14" data-name="Tracé 1343" d="M11,3.26H17.7L10,14.31h8.85L15.63,19H.09Z"></path>
          <path id="Tracé_1344--inject-14" data-name="Tracé 1344" d="M20.06,3.26h5.67l.79,6.13,4.27-6.13h6.1l-12.38,18H18.26l3.48-5Z"></path>
          <path id="Tracé_1345--inject-14" data-name="Tracé 1345" d="M29.46,19,40.38,3.26h6.16l.11,5.22,3.63-5.22h6.91L46.27,19h-7l0-5.07L35.71,19Z"></path>
          <path id="Tracé_1346--inject-14" data-name="Tracé 1346" d="M59.66,3.26h6.48l.21,2.53,3.54-2.53h7.56L66.77,10.88,67.43,19H60.59l-.21-3.52L55.44,19H47.88l12.2-8.69Z"></path>
        </g>
      </g>
      <g id="Groupe_6060--inject-14" data-name="Groupe 6060">
        <g id="Groupe_6059--inject-14" data-name="Groupe 6059">
          <path id="Tracé_1347--inject-14" data-name="Tracé 1347" d="M70.12,19a1.48,1.48,0,1,0-1.52-1.48A1.5,1.5,0,0,0,70.12,19Zm0-2.7a1.23,1.23,0,0,1,1.2,1.25,1.23,1.23,0,0,1-2.45,0,1.24,1.24,0,0,1,1.25-1.22Z"></path>
          <path id="Tracé_1348--inject-14" data-name="Tracé 1348" d="M69.85,17.61h.24l.43.7h.33l-.45-.72a.44.44,0,0,0,.42-.44v0c0-.32-.19-.51-.61-.51h-.67v1.7h.32Zm0-.74h.24c.2,0,.41,0,.41.24s-.22.24-.41.24h-.24Z"></path>
        </g>
      </g>
    </g>
  </g>
</svg>