<svg xmlns="http://www.w3.org/2000/svg" xmlns:xlink="http://www.w3.org/1999/xlink" version="1.1" id="Layer_1" x="0px" y="0px" viewBox="0 0 1368 161" style="enable-background:new 0 0 1368 161;" xml:space="preserve" data-inject-url="https://sea-doo.brp.com/content/dam/global/logos/brands/footer/logo-manitou-footer.svg" class="svg">
<style type="text/css">
	.st0{fill:#231F20;}
</style>
<g>
	<path class="st0" d="M158.89,37.76l-54.48,71.75L50.08,37.76H30.5l0.07,5.19v86.79h18.63V67.57l46.64,62.18h16.69l45.48-60.07   v60.07h18.65V37.76H158.89z M302.12,37.76l-53.58,84.8v7.19h17.85l46.91-74.01l46.93,74.01h18.03v-6.89l-53.78-85.09H302.12z    M560.04,37.76v68.5L469.12,38.1v-0.34h-18.65v91.98h18.65V61.51l90.91,68.13v0.1h18.64V37.76H560.04z M667.83,129.74h18.65V37.77   h-18.65V129.74z M814.74,37.76v0.02h-53.99v18.75h53.99v73.21h18.63V56.53h53.97V37.78h-53.97v-0.02H814.74z M976.36,56.53h91.17   v54.46h-91.17V56.53z M1067.56,37.76v0.02h-91.2v-0.02h-18.63v91.98h128.45V37.76H1067.56z M1271.38,37.76v73.23h-91.17V37.76   h-18.66v91.98h128.48V37.76H1271.38z M1328.98,113.06c-1.09-1.95-2.6-3.25-4.34-4.36c-1.29-0.64-2.71-1.16-4.15-1.39   c-0.49-0.09-1-0.12-1.51-0.12c-0.35,0-0.7,0.03-1.05,0.07c-1.38,0.16-2.69,0.63-4.09,1.24c-0.17,0.06-0.35,0.14-0.51,0.21   c-0.51,0.32-1,0.67-1.46,1.03c-1.14,0.89-2.14,1.93-2.9,3.32c-0.06,0.11-0.11,0.22-0.14,0.32c-0.79,1.66-1.37,3.5-1.37,5.33   c0,0.55,0.06,1.09,0.14,1.62c0.17,0.97,0.47,1.94,0.85,2.85c0.17,0.4,0.35,0.79,0.53,1.18c0.21,0.38,0.43,0.72,0.66,1.06   c0.96,1.39,2.12,2.41,3.7,3.28c1.73,0.89,3.68,1.53,5.64,1.53c1.96,0,3.91-0.64,5.66-1.53c1.96-1.08,3.25-2.38,4.34-4.34   c0.87-1.74,1.52-3.7,1.52-5.65S1329.85,114.81,1328.98,113.06 M1327.25,123.5c-0.87,1.52-1.96,2.61-3.48,3.48   c-1.52,0.86-3.04,1.3-4.78,1.3c-1.74,0-3.26-0.44-4.78-1.3c-0.76-0.43-1.41-0.92-1.97-1.49c-0.55-0.56-1.03-1.18-1.45-1.9   c-0.01-0.04-0.04-0.06-0.05-0.09c-0.87-1.53-1.31-3.05-1.31-4.79c0-1.24,0.25-2.38,0.69-3.5c0.17-0.43,0.39-0.86,0.63-1.29   c0.11-0.2,0.23-0.39,0.35-0.58c0.64-0.98,1.41-1.76,2.36-2.41c0.24-0.17,0.49-0.33,0.77-0.49c0.38-0.22,0.74-0.39,1.15-0.55   c1.21-0.5,2.48-0.75,3.63-0.75c0.13,0,0.27,0,0.4,0.01c0.75,0.04,1.56,0.17,2.35,0.41c0.7,0.22,1.39,0.5,2.04,0.87   c1.52,0.87,2.61,1.96,3.48,3.48c0.87,1.52,1.3,3.04,1.3,4.78S1328.12,121.97,1327.25,123.5 M1320.67,112.88   c-0.64-0.14-1.49-0.25-2.56-0.25h-2.64h-1.49v1.68v2.14v3.86v2.87v1.86h0.41h1.55v-0.58v-2.14v-1.97v-0.53h0.33h0.75   c0.72,0,1.15,0.15,1.52,0.33l0.22,0.11c0.27,0.27,0.64,0.72,1.08,1.39c0.26,0.39,0.55,0.87,0.87,1.43l1.08,1.96h2.61l-1.52-2.39   c-0.87-1.09-1.31-1.96-1.96-2.4c-0.02-0.01-0.04-0.04-0.06-0.05c-0.23-0.2-0.63-0.4-1.03-0.6c0.59-0.12,1.11-0.24,1.57-0.43   c0.39-0.16,0.73-0.37,1.03-0.66c0.66-0.65,1.09-1.52,1.09-2.39c0-0.65-0.22-1.3-0.65-1.96c-0.07-0.07-0.14-0.13-0.2-0.2   c-0.38-0.36-0.77-0.7-1.32-0.89C1321.18,113,1320.94,112.94,1320.67,112.88 M1320.72,117.63c-0.2,0.09-0.48,0.19-0.82,0.27   c-0.44,0.09-0.97,0.17-1.57,0.17h-2.39v-3.7h2.17c1.09,0,1.75,0,2.18,0.22c0.1,0.11,0.25,0.21,0.41,0.32   c0.17,0.12,0.34,0.22,0.45,0.34c0,0.22,0.22,0.65,0.22,1.09C1321.37,116.76,1321.16,117.2,1320.72,117.63"></path>
</g>
</svg>