<svg xmlns="http://www.w3.org/2000/svg" xmlns:xlink="http://www.w3.org/1999/xlink" version="1.1" id="Layer_1" x="0px" y="0px" viewBox="0 0 102.36 16" style="enable-background:new 0 0 102.36 16;" xml:space="preserve" data-inject-url="https://sea-doo.brp.com/content/dam/global/logos/brands/footer/logo-quintrex-footer.svg" class="svg">
<style type="text/css">
	.st0{fill:#010101;}
</style>
<g id="Calque_1--inject-27">
	<g>
		<g>
			<path class="st0" d="M16.02,8.78v-6.9h3.46v6.83c0,1.77,0.9,2.61,2.26,2.61c1.37,0,2.26-0.81,2.26-2.53V1.88h3.46v6.81     c0,3.96-2.26,5.7-5.75,5.7S16.01,12.62,16.02,8.78L16.02,8.78z"></path>
			<path class="st0" d="M29.99,1.88h3.42v12.28h-3.42C29.99,14.16,29.99,1.88,29.99,1.88z"></path>
			<path class="st0" d="M36.02,1.88h3.78l4.45,6.49V1.88h3.37v12.28h-2.98l-5.25-7.75v7.75h-3.37V1.88z"></path>
			<path class="st0" d="M52.81,4.86h-3.68V1.88h10.77v2.98h-3.68v9.3h-3.4C52.81,14.16,52.81,4.86,52.81,4.86z"></path>
			<path class="st0" d="M61.39,1.88h5.81c1.88,0,3.18,0.49,4,1.33c0.72,0.7,1.09,1.65,1.09,2.86V6.1c0,1.88-1,3.12-2.53,3.77     l2.93,4.28h-3.93l-2.47-3.72h-0.04h-1.46v3.72h-3.4L61.39,1.88L61.39,1.88z M67.04,7.77c1.16,0,1.83-0.56,1.83-1.46V6.28     c0-0.97-0.7-1.46-1.84-1.46H64.8v2.95L67.04,7.77L67.04,7.77z"></path>
			<path class="st0" d="M74.35,1.88h9.88v2.9h-6.51v1.86h5.89v2.68h-5.89v1.95h6.6v2.9h-9.97V1.88L74.35,1.88z"></path>
			<path class="st0" d="M89.68,7.93l-4.04-6.04h3.91l2.17,3.46l2.19-3.46h3.82l-4.04,6l4.21,6.28h-3.91l-2.35-3.7l-2.37,3.7h-3.82     L89.68,7.93L89.68,7.93z"></path>
			<path class="st0" d="M9.79,9.42H6.15l2.16,1.92c-0.22,0.05-0.46,0.08-0.71,0.08c-1.86,0-3.14-1.55-3.14-3.32V8.08     c0-0.1,0-0.21,0.02-0.32l0,0c0.14-1.63,1.34-2.97,3.09-2.97c1.88,0,3.16,1.55,3.16,3.32v0.04c0,0.31-0.04,0.61-0.11,0.9     l2.77,2.42c0.61-0.98,0.96-2.13,0.96-3.36V8.07c0-0.23-0.02-0.46-0.04-0.69c-0.23-2.15-1.51-3.97-3.41-4.93     c-0.93-0.47-2-0.73-3.16-0.73c-2.71,0-4.93,1.46-5.98,3.59l0,0C1.34,6.15,1.1,7.1,1.1,8.11v0.04c0,0.22,0.01,0.45,0.04,0.66     c0.22,2.17,1.52,4,3.43,4.96c0.92,0.46,1.98,0.72,3.13,0.72c1.2,0,2.3-0.29,3.25-0.79l1.41,1.26h3.63L9.79,9.42L9.79,9.42z"></path>
		</g>
		<g>
			<path class="st0" d="M99.79,14.15c0.67,0,1.22-0.54,1.22-1.2s-0.55-1.19-1.22-1.19c-0.67,0-1.23,0.53-1.23,1.19     S99.12,14.15,99.79,14.15z M99.79,11.96c0.56,0,1.01,0.44,1.01,0.98c0,0.54-0.45,0.99-1.01,0.99c-0.56,0-1.01-0.44-1.01-0.99     C98.78,12.39,99.24,11.96,99.79,11.96z"></path>
			<path class="st0" d="M99.57,13.06h0.19l0.35,0.56h0.27l-0.36-0.57c0.19-0.02,0.33-0.14,0.33-0.37c0-0.27-0.16-0.42-0.49-0.42     h-0.54v1.36h0.26L99.57,13.06L99.57,13.06z M99.57,12.46h0.19c0.16,0,0.33,0.01,0.33,0.19c0,0.18-0.17,0.19-0.33,0.19h-0.19     C99.57,12.84,99.57,12.46,99.57,12.46z"></path>
		</g>
	</g>
</g>
</svg>