<svg xmlns="http://www.w3.org/2000/svg" id="Calque_1" data-name="Calque 1" width="86.25" height="25.48" viewBox="0 0 86.25 25.48" data-inject-url="https://sea-doo.brp.com/content/dam/global/logos/brands/footer/logo-rotax-footer.svg" class="svg">
  <title>logo-rotax</title>
  <g id="Brands_Logo--inject-17" data-name="Brands Logo">
    <g id="Rotax_Logo--inject-17" data-name="Rotax Logo">
      <g id="Groupe_6061--inject-17" data-name="Groupe 6061">
        <path id="Tracé_1349--inject-17" data-name="Tracé 1349" d="M11.68,3.36c3.16.09,3.47,3.38,3.47,3.38l0,2.82A3.16,3.16,0,0,1,13,13c-.41,0-.13.17-.13.17a2.85,2.85,0,0,1,1.91,1.42c.77,1.28.5,2,.5,2v2.7H10.21V16.9a1.91,1.91,0,0,0-2-1.78H4.9v4.26H.12v-16S8.52,3.27,11.68,3.36ZM5,7.12v4H9a1.38,1.38,0,0,0,1.27-1.27,16.26,16.26,0,0,0,0-1.71A1.18,1.18,0,0,0,9,7.06H9C7.75,7,5,7.12,5,7.12Z"></path>
        <path id="Tracé_1350--inject-17" data-name="Tracé 1350" d="M25.05,19.74a31.56,31.56,0,0,1-3.37-.17c-4.3-.58-4.62-3.83-4.62-3.83-.44-1.67-.3-7-.3-7s-.23-4.92,5.79-5.47c0,0,1.17,0,2.5,0s2.5,0,2.5,0c6,.55,5.79,5.47,5.79,5.47a44,44,0,0,1-.3,7s-.32,3.25-4.63,3.83a31.5,31.5,0,0,1-3.36.17m0-3.93a6.24,6.24,0,0,0,1.78-.13c1.57-.29,1.47-2.1,1.47-2.1s.1-1.57.05-4c0-2.09-1.41-2.45-1.41-2.45a10.91,10.91,0,0,0-3.78,0s-1.38.35-1.42,2.45c0,2.45.06,4,.06,4s-.1,1.81,1.46,2.1a6.34,6.34,0,0,0,1.79.13"></path>
        <path id="Tracé_1351--inject-17" data-name="Tracé 1351" d="M34.34,3.43h14V7.17H44.19a.26.26,0,0,0-.26.26.43.43,0,0,0,0,.11V19.38H38.9V7.62s0-.51-.4-.45-4.17,0-4.17,0Z"></path>
        <path id="Tracé_1352--inject-17" data-name="Tracé 1352" d="M46.67,19.33,51.6,3.43h7.66l5.35,15.91h-5l-1-2.52H52.76l-.85,2.52Zm7.07-6.09h3.74l-2-5.75Z"></path>
        <path id="Tracé_1353--inject-17" data-name="Tracé 1353" d="M65.5,3.44h5.14l3.15,5.15L77.1,3.33h5l-4.41,7.76,4.47,8.24H77.31l-3.45-5.51-3.31,5.57h-5.2L69.82,11,65.5,3.45"></path>
      </g>
      <g id="Groupe_6063--inject-17" data-name="Groupe 6063">
        <g id="Groupe_6062--inject-17" data-name="Groupe 6062">
          <path id="Tracé_1354--inject-17" data-name="Tracé 1354" d="M84.52,19.33A1.51,1.51,0,1,0,83,17.82,1.54,1.54,0,0,0,84.52,19.33Zm0-2.75a1.24,1.24,0,1,1-1.28,1.24,1.25,1.25,0,0,1,1.27-1.24Z"></path>
          <path id="Tracé_1355--inject-17" data-name="Tracé 1355" d="M84.24,18h.24l.44.7h.34L84.8,18a.44.44,0,0,0,.42-.46v0c0-.34-.2-.52-.62-.52h-.69v1.72h.33Zm0-.76h.24c.2,0,.42,0,.42.24s-.22.25-.42.25h-.24Z"></path>
        </g>
      </g>
    </g>
  </g>
</svg>