<svg id="SvgjsSvg1001" width="288" height="288" xmlns="http://www.w3.org/2000/svg" version="1.1" xmlns:xlink="http://www.w3.org/1999/xlink" xmlns:svgjs="http://svgjs.com/svgjs"><defs id="SvgjsDefs1002"></defs><g id="SvgjsG1008"><svg xmlns="http://www.w3.org/2000/svg" class="svg" data-inject-url="https://sea-doo.brp.com/content/dam/global/logos/brands/footer/logo-seadoo-footer.svg" data-name="Calque 1" viewBox="0 0 139.64 25.48" width="288" height="288"><g data-name="Brands Logo" fill="#ffffff" class="color000 svgShape"><g data-name="Sea-Doo Logo" fill="#ffffff" class="color000 svgShape"><path d="M27.15,19.89H41.81a1,1,0,0,0,.94-1V16.62a1,1,0,0,0-1-1H30.44a.78.78,0,0,1-.78-.78.79.79,0,0,1,.78-.79H41.78a1,1,0,0,0,1-1V11.63a1,1,0,0,0-1-1H30.44a.78.78,0,0,1,0-1.56H41.78a1,1,0,0,0,1-1V5.54a1,1,0,0,0-1-1H27.15A3.35,3.35,0,0,0,23.81,7.9v8.65a3.34,3.34,0,0,0,3.34,3.34Z" data-name="Tracé 1316" fill="#ffffff" class="color000 svgShape"></path><path d="M47.84,19.89H58.32s1.16,0,.24-1c-.39-.44-1.54-1.7-2.26-2.51s-1-.76-1.4-.76H51.73a1,1,0,0,1-1-1V10.07c0-.55.83-1,1.53-.21,0,0,8.08,9,8.61,9.55a1.55,1.55,0,0,0,1.07.49H68a.58.58,0,0,0,.58-.58.59.59,0,0,0-.19-.43L56.28,5.32c-.68-.68-1-.75-1.51-.75H47.84a3.35,3.35,0,0,0-3.35,3.34v8.65a3.35,3.35,0,0,0,3.35,3.34Z" data-name="Tracé 1317" fill="#ffffff" class="color000 svgShape"></path><path d="M88.24,15.61H75.42c-.38,0-.66,0-1.39.76s-1.88,2.07-2.27,2.51c-.91,1,.25,1,.25,1H92.13a3.34,3.34,0,0,0,3.35-3.34V7.91a3.35,3.35,0,0,0-3.35-3.34H85.2c-.56,0-.84.07-1.51.75l-7.36,8.2a.57.57,0,0,0,0,.81.55.55,0,0,0,.43.2h6.05A1.5,1.5,0,0,0,83.84,14c.52-.52,3.87-4.18,3.87-4.18.7-.8,1.53-.35,1.53.2V14.6a1,1,0,0,1-1,1Z" data-name="Tracé 1318" fill="#ffffff" class="color000 svgShape"></path><path d="M70.1,15.52a4.73,4.73,0,1,0-4.73-4.73h0a4.72,4.72,0,0,0,4.72,4.73Z" data-name="Tracé 1319" fill="#ffffff" class="color000 svgShape"></path><path d="M100.74,19.89h13.4a3.35,3.35,0,0,0,3.34-3.34V7.91a3.35,3.35,0,0,0-3.34-3.34h-13.4A3.34,3.34,0,0,0,97.4,7.91v8.64A3.33,3.33,0,0,0,100.74,19.89Zm3.86-10a.8.8,0,0,1,.8-.8h4.07a.8.8,0,0,1,.8.8v5a.81.81,0,0,1-.8.8H105.4a.8.8,0,0,1-.8-.8Z" data-name="Tracé 1320" fill="#ffffff" class="color000 svgShape"></path><path d="M122.64,19.89H136a3.35,3.35,0,0,0,3.35-3.34V7.91A3.35,3.35,0,0,0,136,4.57H122.63a3.35,3.35,0,0,0-3.34,3.34v8.64a3.34,3.34,0,0,0,3.34,3.34Zm3.86-10a.8.8,0,0,1,.8-.8h4.08a.81.81,0,0,1,.8.8v5a.82.82,0,0,1-.8.8H127.3a.8.8,0,0,1-.8-.8Z" data-name="Tracé 1321" fill="#ffffff" class="color000 svgShape"></path><path d="M1.42,19.89h17.1a3.34,3.34,0,0,0,3.34-3.34V11.64a1,1,0,0,0-1-1h-11a.79.79,0,0,1-.13-1.57h11a1,1,0,0,0,1-1V5.58a1,1,0,0,0-1-1H6.26A3.34,3.34,0,0,0,2.92,7.91V13a1,1,0,0,0,.88,1h9.92A.79.79,0,0,1,14,15.63H1.42a1,1,0,0,0-1,1v2.3a.94.94,0,0,0,.92,1h0Z" data-name="Tracé 1322" fill="#ffffff" class="color000 svgShape"></path></g></g></svg></g></svg>