<svg xmlns="http://www.w3.org/2000/svg" version="1.1" xmlns:xlink="http://www.w3.org/1999/xlink" width="512" height="512" x="0" y="0" viewBox="0 0 24 24" style="enable-background:new 0 0 512 512" xml:space="preserve" class=""><g><path d="M16 8a1 1 0 0 0-1.414 0L12 10.586 9.414 8A1 1 0 0 0 8 9.414L10.586 12 8 14.586A1 1 0 0 0 9.414 16L12 13.414 14.586 16A1 1 0 0 0 16 14.586L13.414 12 16 9.414A1 1 0 0 0 16 8Z" fill="#14505c" opacity="1" data-original="#14505c" class=""></path><path d="M12 0a12 12 0 1 0 12 12A12.013 12.013 0 0 0 12 0Zm0 22a10 10 0 1 1 10-10 10.011 10.011 0 0 1-10 10Z" fill="#14505c" opacity="1" data-original="#14505c" class=""></path></g></svg>